# xmcd
#
# Track frame offsets:
# 150
# 13960
# 21587
# 30099
# 46009
# 62368
# 92603
# 112618
# 133850
# 161880
# 174166
# 194335
# 207839
# 224274
# 231239
# 249360
# 255242
# 263597
# 293863
# 314837
# 327055
#
# Disc length: 4477 seconds
#
# Revision: 0
# Processed by: cddbd v1.5.1PL2 Copyright (c) Steve Scherf et al.
# Submitted via: Audion 3.0.2 (http://www.panic.com/audion/)
#
DISCID=1a117b15
DTITLE=Ben Pitcher Mix - Vigourous Titwank
DYEAR=1900
DGENRE=
TTITLE0=(I make the) Product - Desperate Bicycles
TTITLE1=Driving Test - Erase Errata
TTITLE2=Le Tigre
TTITLE3=Corporal Chalkie - Mekons
TTITLE4=I wanna Know what Love Is - Julie Ruin
TTITLE5=There Goes Concord Again- ...And The Native Hipsters
TTITLE6=Used to be in Evil Gazebo - Half Man Half Biscuit
TTITLE7=The English Motorway System - Black Box Recorder
TTITLE8=Madalyn Albrights Answer - Chicks on Speed/ Noheads
TTITLE9=Lonely Saturday Night - Don French
TTITLE10=Carry Bag Man - The Fall
TTITLE11=There Aint half been some Clever Bastards - Ian Dury
TTITLE12=I am Nine - Desperate Bicycles
TTITLE13=On The Subway - The Last Poets
TTITLE14=Ping Pong Affair - The Slits
TTITLE15=Back It Up Boys - Peaches
TTITLE16=Virhe - Panasonic
TTITLE17=No Side to Fall In - The Raincoats
TTITLE18=I Bloodbrother Be - Shockhead Peters
TTITLE19=Excretory Eat Anorexia Nervosa - Soft Cell
TTITLE20=Smashing Time - Television Personalities
EXTD=
EXTT0=
EXTT1=
EXTT2=
EXTT3=
EXTT4=
EXTT5=
EXTT6=
EXTT7=
EXTT8=
EXTT9=
EXTT10=
EXTT11=
EXTT12=
EXTT13=
EXTT14=
EXTT15=
EXTT16=
EXTT17=
EXTT18=
EXTT19=
EXTT20=
PLAYORDER=
